<?xml version="1.0" standalone="no"?>
<!DOCTYPE svg PUBLIC "-//W3C//DTD SVG 20010904//EN"
 "http://www.w3.org/TR/2001/REC-SVG-20010904/DTD/svg10.dtd">
<svg version="1.0" xmlns="http://www.w3.org/2000/svg"
 width="256.000000pt" height="256.000000pt" viewBox="0 0 256.000000 256.000000"
 preserveAspectRatio="xMidYMid meet">
<metadata>
Created by potrace 1.11, written by Peter Selinger 2001-2013
</metadata>
<g transform="translate(0.000000,256.000000) scale(0.100000,-0.100000)"
fill="#000000" stroke="none">
<path d="M572 2273 c-33 -7 -88 -66 -96 -103 -3 -18 -6 -185 -6 -371 l0 -339
-100 0 -100 0 0 -532 0 -533 23 -39 c12 -21 38 -47 57 -57 33 -18 79 -19 932
-19 895 0 897 0 933 21 20 12 45 39 55 60 19 36 20 62 20 569 l0 530 -100 0
-100 0 0 349 c0 386 -2 400 -62 443 l-33 23 -700 1 c-385 1 -710 0 -723 -3z
m1402 -109 c14 -13 16 -60 16 -360 l0 -344 -710 0 -710 0 0 346 c0 319 1 348
18 360 14 11 147 13 694 14 602 0 678 -2 692 -16z"/>
</g>
</svg>
